<?xml version="1.0" encoding="UTF-8" standalone="no"?>
<svg
   width="640"
   height="640"
   viewBox="0 0 640 640.00003"
   version="1.1"
   xmlns="http://www.w3.org/2000/svg"
   xmlns:svg="http://www.w3.org/2000/svg">
  <g
     style="fill:#e9ecf5;fill-opacity:1">
    <path
       style="stroke-width:4;stroke-linecap:round;paint-order:stroke fill markers"
       d="M -2e-6,8.7917024e-6 H 640 V 640.00001 H -2e-6 Z" />
  </g>
  <g
     transform="matrix(2.0249825,0,0,2.0249825,-138.45025,-252.48686)"
     style="stroke-width:0.493831">
    <circle
       style="fill:#000000;fill-opacity:1;stroke:none;stroke-width:14.815;stroke-linecap:round;paint-order:stroke fill markers"
       cx="226.39714"
       cy="282.71201"
       r="118.33531" />
    <path
       style="fill:#97baff;fill-opacity:1;stroke:none;stroke-width:14.815;stroke-linecap:round;stroke-opacity:1;paint-order:stroke fill markers"
       d="m 226.39625,180.46673 a 102.24601,102.24601 0 0 0 -22.3708,2.74098 c -17.74817,31.0481 -13.26597,70.04163 11.10796,96.24196 1.47417,-10.02638 4.80015,-19.6905 9.80771,-28.50106 15.60033,-27.02187 44.29906,-41.74802 73.44616,-40.82823 a 102.24601,102.24601 0 0 0 -71.99103,-29.65365 z m -26.9613,3.73867 a 102.24601,102.24601 0 0 0 -70.49808,67.97143 c 17.98272,31.00198 54.06604,46.68042 89.00415,38.65814 -7.94603,-6.28986 -14.65472,-14.00163 -19.78111,-22.74358 -15.57251,-26.9711 -14.01548,-59.12219 1.27504,-83.88599 z m 102.22997,29.3673 c -35.87881,0.0314 -67.54367,23.45454 -78.07448,57.75311 9.42019,-3.73653 19.45306,-5.68888 29.58701,-5.75748 31.11402,-6.4e-4 58.16,17.38598 71.97302,42.96951 a 102.24601,102.24601 0 0 0 3.49195,-25.82673 102.24601,102.24601 0 0 0 -26.93608,-69.13661 c -0.014,0 -0.0275,-0.002 -0.0414,-0.002 z m -174.0211,43.31168 a 102.24601,102.24601 0 0 0 -3.49195,25.82673 102.24601,102.24601 0 0 0 27.14859,69.13299 c 35.80781,-0.10621 67.38945,-23.50227 77.90339,-57.74589 -9.42019,3.73652 -19.45306,5.68888 -29.58701,5.75748 -31.11401,6.4e-4 -58.16001,-17.38778 -71.97302,-42.97131 z m 126.8735,15.63543 c -6.51019,-0.10841 -13.10739,0.56373 -19.66404,2.06923 7.94602,6.28986 14.65471,14.00164 19.7811,22.74358 15.57294,26.97185 14.01486,59.12192 -1.27684,83.88599 a 102.24601,102.24601 0 0 0 70.49989,-67.96962 C 309.24969,288.0637 282.69845,272.98905 254.51732,272.51981 Z m -16.85643,13.45453 c -1.47417,10.02638 -4.80015,19.69051 -9.80771,28.50106 -15.53255,26.90446 -44.04984,41.63556 -73.06618,40.85525 a 102.24601,102.24601 0 0 0 71.60925,29.62663 102.24601,102.24601 0 0 0 22.37259,-2.74097 c 17.74818,-31.0481 13.26598,-70.04163 -11.10795,-96.24197 z" />
  </g>
</svg>
